<svg xmlns="http://www.w3.org/2000/svg" version="1.1" xmlns:xlink="http://www.w3.org/1999/xlink" xmlns:svgjs="http://svgjs.dev/svgjs" width="2000" height="2110" viewBox="0 0 2000 2110"><g transform="matrix(1,0,0,1,-0.8072160372305461,-3.403225806451701)"><svg viewBox="0 0 235 248" data-background-color="#89939e" preserveAspectRatio="xMidYMid meet" height="2110" width="2000" xmlns="http://www.w3.org/2000/svg" xmlns:xlink="http://www.w3.org/1999/xlink"><g id="tight-bounds" transform="matrix(1,0,0,1,0.09484788437458747,0.4000000000000057)"><svg viewBox="0 0 234.8103042312508 247.2" height="247.2" width="234.8103042312508"><g><svg viewBox="0 0 395.52 416.38949500150386" height="247.2" width="234.8103042312508"><g transform="matrix(1,0,0,1,0,266.03405624891286)"><svg viewBox="0 0 395.52 150.35543875259103" height="150.35543875259103" width="395.52"><g id="textblocktransform"><svg viewBox="0 0 395.52 150.35543875259103" height="150.35543875259103" width="395.52" id="textblock"><g>
<svg viewBox="0 0 395.52 95.37808197373656" height="95.37808197373656" width="395.52"><g transform="matrix(1,0,0,1,0,0)"><svg width="395.52" viewBox="1 -27.5 125.64 30.3" height="95.37808197373656" data-palette-color="#ffffff"><path d="M25.15-1.85L25.15-1.85Q25.15-1.75 25.18-1.63 25.2-1.5 25.2-1.4L25.2-1.4Q25.2-0.55 24.75 0.03 24.3 0.6 23.6 0.6L23.6 0.6Q23.1 0.6 22.6 0.15 22.1-0.3 21.58-1.05 21.05-1.8 20.45-2.78 19.85-3.75 19.1-4.8L19.1-4.8Q18.1-5.9 16.75-7.35 15.4-8.8 13.75-10.7L13.75-10.7Q11.35-7.15 9.6-5.65L9.6-5.65 6.75-1.85Q6.25-1 5.65-0.08 5.05 0.85 4.35 1.95L4.35 1.95Q3.9 2.15 3.2 2.15L3.2 2.15Q2 2.15 1.5 1.68 1 1.2 1 0.25L1 0.25Q1.1-0.05 1.6-0.83 2.1-1.6 2.63-2.4 3.15-3.2 3.6-3.83 4.05-4.45 4.1-4.5L4.1-4.5Q4.85-5.4 5.8-6.48 6.75-7.55 7.73-8.7 8.7-9.85 9.63-11 10.55-12.15 11.25-13.25L11.25-13.25Q10.7-13.7 10.18-14.23 9.65-14.75 8.93-15.43 8.2-16.1 7.25-16.95 6.3-17.8 4.9-18.95L4.9-18.95Q3.65-19.95 3.15-20.9L3.15-20.9Q3.8-22.9 5.2-22.9L5.2-22.9Q5.35-22.9 5.65-22.8L5.65-22.8 9.1-19.8Q9.2-19.6 9.58-19.25 9.95-18.9 10.38-18.5 10.8-18.1 11.2-17.73 11.6-17.35 11.75-17.05L11.75-17.05Q12.55-16.8 13.55-15.65L13.55-15.65Q14.1-16.35 14.73-17.05 15.35-17.75 16.05-18.45L16.05-18.45 18.55-21.4Q19.85-22.85 20.9-23.88 21.95-24.9 22.4-24.9L22.4-24.9Q23-24.9 23.6-24.38 24.2-23.85 24.2-23.3L24.2-23.3Q24.2-23.15 24-22.78 23.8-22.4 23.3-21.78 22.8-21.15 21.95-20.18 21.1-19.2 19.75-17.8L19.75-17.8Q19.65-17.75 19.05-17.05 18.45-16.35 17.78-15.55 17.1-14.75 16.5-14.05 15.9-13.35 15.85-13.3L15.85-13.3 18.85-9.95Q19.3-9.3 19.88-8.68 20.45-8.05 21.25-7.2 22.05-6.35 23-5.08 23.95-3.8 25.15-1.85ZM49.5-17.3L49.5-17.3Q49.4-16.45 49.27-15.8 49.15-15.15 48.82-14.58 48.5-14 47.92-13.35 47.35-12.7 46.4-11.85L46.4-11.85Q45.5-11 44.72-10.6 43.95-10.2 43.12-9.93 42.3-9.65 41.3-9.38 40.3-9.1 38.85-8.55L38.85-8.55Q38.05-8.25 37.4-8.08 36.75-7.9 36.2-7.95L36.2-7.95 35.95-7.95Q35.95-6.35 36.02-5.3 36.1-4.25 36.17-3.45 36.25-2.65 36.32-1.93 36.4-1.2 36.4-0.3L36.4-0.3Q36.4 0.15 36.4 0.7 36.4 1.25 36.27 1.73 36.15 2.2 35.8 2.5 35.45 2.8 34.75 2.8L34.75 2.8Q34 2.8 33.65 2.45 33.3 2.1 33.15 1.53 33 0.95 33 0.18 33-0.6 32.9-1.45L32.9-1.45 32.9-1.4Q32.85-2.05 32.8-3L32.8-3Q32.75-3.85 32.7-5.05 32.65-6.25 32.55-7.9L32.55-7.9 32.55-8.15Q32.55-8.4 32.5-8.93 32.45-9.45 32.42-10 32.4-10.55 32.35-11.05 32.3-11.55 32.3-11.8L32.3-11.8 32.3-11.7Q32.25-11.7 32.35-13.13 32.45-14.55 32.45-17.45L32.45-17.45Q32.45-18.4 32.4-19.18 32.35-19.95 32.2-20.55L32.2-20.55Q32.2-20.65 32.22-20.8 32.25-20.95 32.25-21.2L32.25-21.2Q32.25-21.5 32.22-21.88 32.2-22.25 32.2-22.7L32.2-22.7Q32.2-23.55 32.42-24.03 32.65-24.5 33.07-24.73 33.5-24.95 34.1-25 34.7-25.05 35.45-25.05L35.45-25.05 35.95-25.05Q38.6-25.75 40.35-25.75L40.35-25.75Q40.75-25.75 41.72-25.6 42.7-25.45 44.3-25.2L44.3-25.2Q45.65-24.6 46.62-24.05 47.6-23.5 48.22-22.68 48.85-21.85 49.17-20.58 49.5-19.3 49.5-17.3ZM45.9-16.4L45.9-16.4Q46-16.9 46-17.35 46-17.8 46-18.2L46-18.2Q46-20.05 45.17-20.95 44.35-21.85 42.1-22.55L42.1-22.55Q41.1-22.8 40.25-22.8L40.25-22.8Q40.35-22.8 39.65-22.73 38.95-22.65 38.07-22.5 37.2-22.35 36.45-22.05 35.7-21.75 35.7-21.3L35.7-21.3Q35.7-19.6 35.82-18.1 35.95-16.6 35.95-15.85L35.95-15.85Q35.9-15.75 35.9-11.25L35.9-11.25 36.3-11.25Q37.2-11.25 38.27-11.58 39.35-11.9 40.4-12.3L40.4-12.3Q44.8-13.3 45.9-16.4ZM68.05-1.15L68.05-1.15Q67.09-0.5 63 0.35L63 0.35 60.9-0.05Q60.5-0.2 59.47-0.8 58.45-1.4 57.37-2.55 56.3-3.7 55.47-5.45 54.65-7.2 54.65-9.6L54.65-9.6Q54.65-11.55 55.75-13.08 56.84-14.6 59.09-16.35L59.09-16.35Q60.3-16.65 61.45-16.65L61.45-16.65Q64.8-16.65 67.59-14.4L67.59-14.4Q70-11.1 70-7.15L70-7.15Q70-4.05 68.05-1.15ZM63.5-13.35L63.5-13.35Q62.75-13.7 61.9-13.7L61.9-13.7Q61.3-13.7 60.62-13.4 59.95-13.1 59.37-12.5 58.8-11.9 58.45-10.98 58.09-10.05 58.09-8.8L58.09-8.8Q58.09-7.8 58.37-6.8 58.65-5.8 59.22-4.95 59.8-4.1 60.7-3.58 61.59-3.05 62.84-3.05L62.84-3.05Q64-3.05 65.45-3.65L65.45-3.65Q66.7-5.2 66.7-7.35L66.7-7.35Q66.7-12.1 63.5-13.35ZM89.59-5.45L89.59-5.45Q89.44-4 88.54-2.7L88.54-2.7 86.74-0.15Q86.29 0.25 85.34 0.53 84.39 0.8 83.42 0.98 82.44 1.15 81.67 1.25 80.89 1.35 80.84 1.35L80.84 1.35Q80.34 1.35 79.57 1.18 78.79 1 78.04 0.8 77.29 0.6 76.74 0.43 76.19 0.25 76.14 0.25L76.14 0.25 76.09 0.25Q75.54 0.2 74.92 0 74.29-0.2 73.72-0.5 73.14-0.8 72.77-1.18 72.39-1.55 72.39-2L72.39-2Q72.39-2.55 72.94-3.13 73.49-3.7 74.04-3.7L74.04-3.7Q79.09-1.7 82.09-1.7L82.09-1.7Q83.19-1.7 83.97-2.15 84.74-2.6 85.14-3.1L85.14-3.1 86.19-5Q86.19-5.65 85.82-6.3 85.44-6.95 84.82-7.48 84.19-8 83.39-8.4 82.59-8.8 81.74-8.95L81.74-8.95Q80.79-9.1 79.82-9.5 78.84-9.9 78.02-10.45 77.19-11 76.67-11.68 76.14-12.35 76.09-13.15L76.09-13.15Q76.04-13.15 75.99-15.05L75.99-15.05Q76.09-15.8 76.19-16.25 76.29-16.7 76.64-17.07 76.99-17.45 77.72-17.9 78.44-18.35 79.79-19.2L79.79-19.2Q80.19-19.25 81.27-19.33 82.34-19.4 84.19-19.6L84.19-19.6Q84.99-19.6 88.29-18.4L88.29-18.4Q88.79-17.95 88.79-17.05L88.79-17.05Q88.79-15.5 87.74-15.5L87.74-15.5Q87.69-15.5 87.64-15.53 87.59-15.55 87.49-15.55L87.49-15.55 85.69-16.15Q84.34-16.55 83.39-16.55L83.39-16.55Q81.99-16.55 81.17-16.4 80.34-16.25 79.94-16.03 79.54-15.8 79.39-15.55 79.24-15.3 79.19-15.1L79.19-15.1Q79.19-14.95 79.17-14.83 79.14-14.7 79.14-14.55L79.14-14.55Q79.14-12.6 80.74-12.15L80.74-12.15Q88.64-10.55 89.59-5.45ZM108.54-18.45L108.54-18.45Q108.94-18.15 108.94-17.3L108.94-17.3Q108.94-15.8 107.69-15.8L107.69-15.8 107.49-15.8Q107.49-15.8 106.77-15.73 106.04-15.65 105.14-15.55 104.24-15.45 103.42-15.33 102.59-15.2 102.44-15.1L102.44-15.1 102.44-14.6Q102.44-14.05 102.34-13.13 102.24-12.2 102.24-11.45L102.24-11.45Q102.24-11.2 102.27-10.95 102.29-10.7 102.34-10.45L102.34-10.45Q102.14-9.85 102.14-8.45L102.14-8.45Q102.19-6.55 102.24-5.63 102.29-4.7 102.54-4.25 102.79-3.8 103.39-3.55 103.99-3.3 105.14-2.8L105.14-2.8Q106.34-2.4 106.34-1.4L106.34-1.4Q106.34-0.75 105.87-0.3 105.39 0.15 104.64 0.15L104.64 0.15Q104.29 0.15 103.59 0 102.89-0.15 102.17-0.43 101.44-0.7 100.84-1.07 100.24-1.45 100.04-1.9L100.04-1.9Q99.44-3.2 99.09-4.42 98.74-5.65 98.74-7L98.74-7Q98.74-8.4 98.79-9.1 98.84-9.8 98.89-10.2 98.94-10.6 98.99-10.93 99.04-11.25 99.04-11.85L99.04-11.85Q99.04-12.25 99.02-12.68 98.99-13.1 98.99-13.5L98.99-13.5Q98.99-14.05 99.02-14.43 99.04-14.8 99.09-15.05L99.09-15.05Q97.74-14.95 95.09-14.25L95.09-14.25Q94.29-14.25 93.69-14.65 93.09-15.05 93.09-15.8L93.09-15.8Q93.09-16 93.24-16.35 93.39-16.7 93.77-17.03 94.14-17.35 94.82-17.57 95.49-17.8 96.49-17.8L96.49-17.8 96.79-17.8Q97.89-17.8 99.34-18.25L99.34-18.25Q99.34-18.3 99.37-18.68 99.39-19.05 99.42-19.53 99.44-20 99.47-20.45 99.49-20.9 99.49-21.1L99.49-21.1 99.49-21.35Q99.54-21.9 99.69-22.93 99.84-23.95 100.14-24.98 100.44-26 100.92-26.75 101.39-27.5 102.09-27.5L102.09-27.5Q103.44-27.5 103.74-26.3L103.74-26.3Q103.74-26.2 103.62-25.6 103.49-25 103.34-24.25 103.19-23.5 103.04-22.8 102.89-22.1 102.89-21.9L102.89-21.9Q102.89-21.8 102.84-21.35 102.79-20.9 102.77-20.35 102.74-19.8 102.69-19.25 102.64-18.7 102.64-18.45L102.64-18.45Q102.54-18.45 103.99-18.6L103.99-18.6Q104.24-18.6 104.47-18.63 104.69-18.65 104.89-18.65L104.89-18.65Q105.04-18.65 105.14-18.63 105.24-18.6 105.34-18.6L105.34-18.6Q105.79-18.65 106.19-18.68 106.59-18.7 106.94-18.7L106.94-18.7Q108.04-18.7 108.54-18.45ZM126.64-5.45L126.64-5.45Q126.49-4 125.59-2.7L125.59-2.7 123.79-0.15Q123.34 0.25 122.39 0.53 121.44 0.8 120.46 0.98 119.49 1.15 118.71 1.25 117.94 1.35 117.89 1.35L117.89 1.35Q117.39 1.35 116.61 1.18 115.84 1 115.09 0.8 114.34 0.6 113.79 0.43 113.24 0.25 113.19 0.25L113.19 0.25 113.14 0.25Q112.59 0.2 111.96 0 111.34-0.2 110.76-0.5 110.19-0.8 109.81-1.18 109.44-1.55 109.44-2L109.44-2Q109.44-2.55 109.99-3.13 110.54-3.7 111.09-3.7L111.09-3.7Q116.14-1.7 119.14-1.7L119.14-1.7Q120.24-1.7 121.01-2.15 121.79-2.6 122.19-3.1L122.19-3.1 123.24-5Q123.24-5.65 122.86-6.3 122.49-6.95 121.86-7.48 121.24-8 120.44-8.4 119.64-8.8 118.79-8.95L118.79-8.95Q117.84-9.1 116.86-9.5 115.89-9.9 115.06-10.45 114.24-11 113.71-11.68 113.19-12.35 113.14-13.15L113.14-13.15Q113.09-13.15 113.04-15.05L113.04-15.05Q113.14-15.8 113.24-16.25 113.34-16.7 113.69-17.07 114.04-17.45 114.76-17.9 115.49-18.35 116.84-19.2L116.84-19.2Q117.24-19.25 118.31-19.33 119.39-19.4 121.24-19.6L121.24-19.6Q122.04-19.6 125.34-18.4L125.34-18.4Q125.84-17.95 125.84-17.05L125.84-17.05Q125.84-15.5 124.79-15.5L124.79-15.5Q124.74-15.5 124.69-15.53 124.64-15.55 124.54-15.55L124.54-15.55 122.74-16.15Q121.39-16.55 120.44-16.55L120.44-16.55Q119.04-16.55 118.21-16.4 117.39-16.25 116.99-16.03 116.59-15.8 116.44-15.55 116.29-15.3 116.24-15.1L116.24-15.1Q116.24-14.95 116.21-14.83 116.19-14.7 116.19-14.55L116.19-14.55Q116.19-12.6 117.79-12.15L117.79-12.15Q125.69-10.55 126.64-5.45Z" opacity="1" transform="matrix(1,0,0,1,0,0)" fill="#000000" class="wordmark-text-0" data-fill-palette-color="primary" id="text-0"></path></svg></g></svg>
</g><g transform="matrix(1,0,0,1,75.54431999999998,117.89455805376839)"><svg viewBox="0 0 244.43136 32.460880698822635" height="32.460880698822635" width="244.43136"><g transform="matrix(1,0,0,1,0,0)"><svg width="244.43136" viewBox="1.8 -39.35 394.92 52.45" height="32.460880698822635" data-palette-color="#ffffff"><path d="M12.45 0.75L12.45 0.75Q11.1 0.75 9.3 0.6 7.5 0.45 5.78-0.05 4.05-0.55 2.93-1.65 1.8-2.75 1.8-4.6L1.8-4.6Q1.8-7 3.7-7L3.7-7Q4.35-7 4.7-6.55L4.7-6.55 5.15-5.95Q5.3-5.75 5.43-5.53 5.55-5.3 5.75-5.05L5.75-5.05Q6.45-4 7.75-3.1 9.05-2.2 11.65-2.2L11.65-2.2Q13.15-2.2 14.95-2.68 16.75-3.15 18.03-4.2 19.3-5.25 19.3-7L19.3-7Q19.3-8.45 18.4-9.3 17.5-10.15 16.4-10.65L16.4-10.65Q15.9-10.9 15.28-11.15 14.65-11.4 13.95-11.6L13.95-11.6Q13.3-11.8 12.65-12 12-12.2 11.3-12.4L11.3-12.4Q9.5-13 8.03-13.78 6.55-14.55 5.68-15.75 4.8-16.95 4.8-18.8L4.8-18.8Q4.8-21.1 6.33-22.65 7.85-24.2 10.18-24.98 12.5-25.75 14.9-25.75L14.9-25.75Q15.8-25.75 17-25.6 18.2-25.45 19.35-25.05 20.5-24.65 21.28-23.93 22.05-23.2 22.05-22L22.05-22Q22.05-21.4 21.83-20.98 21.6-20.55 21.15-20.55L21.15-20.55Q20.85-20.55 20.65-20.65L20.65-20.65Q18.45-21.65 16.98-22.1 15.5-22.55 14.4-22.55L14.4-22.55Q13.75-22.55 12.73-22.38 11.7-22.2 10.7-21.83 9.7-21.45 9.03-20.78 8.35-20.1 8.35-19.05L8.35-19.05Q8.35-17.15 11.25-15.9L11.25-15.9Q12.3-15.5 13.6-15.1 14.9-14.7 16.3-14.15L16.3-14.15Q18.1-13.5 19.6-12.6 21.1-11.7 21.98-10.43 22.85-9.15 22.85-7.25L22.85-7.25Q22.85-4.4 21.4-2.63 19.95-0.85 17.6-0.05 15.25 0.75 12.45 0.75ZM36.2 1L36.2 1Q34.95 1 34.35 0.2 33.75-0.6 33.57-1.8 33.4-3 33.4-4.15L33.4-4.15Q33.4-4.7 33.42-5.2 33.45-5.7 33.45-6.05L33.45-6.05Q33.45-9.65 33.6-13.33 33.75-17 33.75-21.35L33.75-21.35Q31.9-21.35 30.7-21.2 29.5-21.05 28.3-21.05L28.3-21.05Q27.5-21.05 27.2-21.35 26.9-21.65 26.9-22.35L26.9-22.35Q26.9-23.15 27.12-23.53 27.35-23.9 27.7-24L27.7-24 32.6-25Q33.7-25.25 34.17-26 34.65-26.75 34.85-27.45L34.85-27.45Q34.95-27.85 34.97-28.23 35-28.6 35.05-29.05L35.05-29.05Q35.05-29.45 35.07-29.83 35.1-30.2 35.1-30.55L35.1-30.55Q35.2-32.15 35.62-32.9 36.05-33.65 37.3-33.65L37.3-33.65Q38.45-33.65 38.67-32.75 38.9-31.85 38.9-31.05L38.9-31.05Q38.9-30.5 38.82-29.38 38.75-28.25 38.7-27.15 38.65-26.05 38.6-25.55L38.6-25.55 46.6-25.55Q47.05-25.55 47.5-24.95 47.95-24.35 47.95-23.4L47.95-23.4Q47.95-23.1 47.7-22.63 47.45-22.15 47.1-22.15L47.1-22.15Q46.6-22.15 45.22-22.13 43.85-22.1 42.27-22.05 40.7-22 39.5-21.95 38.3-21.9 38.15-21.8L38.15-21.8Q37.9-18.8 37.77-16.03 37.65-13.25 37.65-10.65L37.65-10.65Q37.65-8.95 37.72-7.38 37.8-5.8 37.85-4.25L37.85-4.25Q37.85-4 37.9-3.5 37.95-3 37.95-2.4L37.95-2.4Q37.95-1.25 37.62-0.13 37.3 1 36.2 1ZM61 0.5L61 0.5Q58.75 0.5 56.82-0.5 54.9-1.5 53.6-3.2 52.3-4.9 51.9-7L51.9-7 51.9-9.65Q51.9-12.5 52.95-15.4 54-18.3 55.87-20.75 57.75-23.2 60.32-24.68 62.9-26.15 65.9-26.15L65.9-26.15Q67.8-26.15 69.57-25.5 71.34-24.85 72.75-24L72.75-24Q73.05-26.1 73.5-26.9 73.95-27.7 75.05-27.7L75.05-27.7Q75.9-27.7 76.25-27.18 76.59-26.65 76.59-25.35L76.59-25.35Q76.59-22.35 76.47-19.48 76.34-16.6 76.34-13.6L76.34-13.6Q76.34-11.2 76.62-8.65 76.9-6.1 76.9-3.75L76.9-3.75Q76.9-3 76.92-2.25 76.95-1.5 76.67-1.03 76.4-0.55 75.55-0.55L75.55-0.55Q74.34-0.55 73.77-1.68 73.2-2.8 73-4.4 72.8-6 72.59-7.4L72.59-7.4Q72.09-6.05 70.92-4.75 69.75-3.45 68.57-2.53 67.4-1.6 66.77-1.23 66.15-0.85 66.75-1.3L66.75-1.3Q65.65-0.5 64.02 0 62.4 0.5 61 0.5ZM60.5-2.65L60.5-2.65Q62.75-2.65 64.7-3.95 66.65-5.25 68.12-7.3 69.59-9.35 70.42-11.6 71.25-13.85 71.25-15.75L71.25-15.75Q71.25-16.7 71.02-17.93 70.8-19.15 70.2-20.3 69.59-21.45 68.57-22.2 67.55-22.95 65.9-22.95L65.9-22.95Q63.75-22.95 61.8-21.58 59.85-20.2 58.32-18.07 56.8-15.95 55.95-13.7 55.1-11.45 55.1-9.65L55.1-9.65Q55.1-8.3 55.57-6.65 56.05-5 57.22-3.83 58.4-2.65 60.5-2.65ZM89.59 13.1L89.59 13.1Q89.44 13.1 89.14 12.7 88.84 12.3 88.84 11.5L88.84 11.5Q88.84 10.8 89.02 10.1 89.19 9.4 89.49 8.7L89.49 8.7Q89.84 7.95 90.19 7.2 90.54 6.45 90.89 5.7L90.89 5.7Q91.19 4.95 91.62 3.8 92.04 2.65 92.44 1.48 92.84 0.3 93.12-0.55 93.39-1.4 93.39-1.5L93.39-1.5 93.39-2.8Q90.29-2.8 88.24-3.95 86.19-5.1 84.99-7 83.79-8.9 83.24-11.23 82.69-13.55 82.52-15.98 82.34-18.4 82.34-20.5L82.34-20.5Q82.34-21.5 82.39-22.45 82.44-23.4 82.64-24.35L82.64-24.35Q82.89-25.5 83.27-25.88 83.64-26.25 83.99-26.25L83.99-26.25Q85.14-26.25 85.62-25.38 86.09-24.5 86.09-22.85L86.09-22.85Q86.09-21.7 85.94-20.68 85.79-19.65 85.79-18.45L85.79-18.45 85.79-17.95Q85.79-17.5 85.97-16.23 86.14-14.95 86.34-13.65 86.54-12.35 86.64-11.7L86.64-11.7Q86.89-10.6 87.39-9.38 87.89-8.15 88.82-7.3 89.74-6.45 91.19-6.45L91.19-6.45Q93.14-6.45 94.67-7.88 96.19-9.3 97.47-11.58 98.74-13.85 99.79-16.35L99.79-16.35Q100.19-17.2 100.54-18.05 100.89-18.9 101.24-19.7L101.24-19.7Q101.64-20.5 101.99-21.2 102.34-21.9 102.74-22.55L102.74-22.55Q103.54-23.85 104.22-24.4 104.89-24.95 105.54-24.95L105.54-24.95Q106.19-24.95 106.52-24.6 106.84-24.25 106.84-23.4L106.84-23.4Q106.84-21.85 106.32-20.35 105.79-18.85 104.99-17.35L104.99-17.35Q104.14-15.8 103.19-14.3 102.24-12.8 101.54-11.3L101.54-11.3Q101.14-10.4 100.47-8.88 99.79-7.35 99.07-5.73 98.34-4.1 97.82-2.85 97.29-1.6 97.19-1.3L97.19-1.3Q97.14-1.05 96.79-0.18 96.44 0.7 96.02 1.9 95.59 3.1 95.14 4.33 94.69 5.55 94.37 6.43 94.04 7.3 93.94 7.55L93.94 7.55Q93.64 8.45 93.09 9.75 92.54 11.05 91.72 12.08 90.89 13.1 89.59 13.1ZM141.84-0.75L141.84-0.75Q138.34-0.75 135.94-2.45 133.54-4.15 132.29-7.03 131.04-9.9 131.04-13.3L131.04-13.3Q131.04-17.1 132.74-20.25 134.44-23.4 137.44-25.33 140.44-27.25 144.24-27.25L144.24-27.25Q145.29-27.25 146.69-27.1 148.09-26.95 149.39-26.5 150.69-26.05 151.54-25.2 152.39-24.35 152.39-22.95L152.39-22.95Q152.39-22.4 151.94-22 151.49-21.6 150.49-21.6L150.49-21.6Q149.69-21.6 149.01-22 148.34-22.4 147.74-22.8L147.74-22.8Q146.84-23.4 145.86-23.88 144.89-24.35 143.74-24.35L143.74-24.35Q141.54-24.35 139.89-23.23 138.24-22.1 137.14-20.33 136.04-18.55 135.49-16.57 134.94-14.6 134.94-12.95L134.94-12.95Q134.94-9.7 136.21-7.78 137.49-5.85 139.61-5.03 141.74-4.2 144.24-4.2L144.24-4.2Q146.64-4.2 148.61-5.05 150.59-5.9 152.64-6.85L152.64-6.85Q153.34-7.2 153.79-7.2L153.79-7.2Q154.39-7.2 154.59-6.73 154.79-6.25 154.79-5.55L154.79-5.55Q154.79-4.25 153.74-3.38 152.69-2.5 151.09-1.98 149.49-1.45 147.66-1.18 145.84-0.9 144.29-0.83 142.74-0.75 141.84-0.75ZM173.34 0L173.34 0Q169.74 0 166.64-1.58 163.54-3.15 161.66-5.98 159.79-8.8 159.79-12.55L159.79-12.55Q159.79-15.1 160.86-17.3 161.94-19.5 163.64-21.5 165.34-23.5 167.19-25.4L167.19-25.4Q168.04-26.25 169.14-26.63 170.24-27 171.49-27L171.49-27Q174.94-27 177.99-26.28 181.04-25.55 183.41-23.95 185.79-22.35 187.14-19.8 188.49-17.25 188.49-13.6L188.49-13.6Q188.49-10.6 187.21-8.1 185.94-5.6 183.76-3.78 181.59-1.95 178.89-0.98 176.19 0 173.34 0ZM172.24-3.7L172.24-3.7Q174.54-3.7 176.81-4.35 179.09-5 180.94-6.33 182.79-7.65 183.91-9.65 185.04-11.65 185.04-14.4L185.04-14.4Q185.04-16.9 183.96-18.68 182.89-20.45 181.14-21.58 179.39-22.7 177.34-23.25 175.29-23.8 173.34-23.8L173.34-23.8Q172.54-23.8 171.56-23.68 170.59-23.55 169.69-22.7L169.69-22.7Q168.59-21.65 167.46-20.58 166.34-19.5 165.39-18.2L165.39-18.2Q164.44-16.95 163.84-15.4 163.24-13.85 163.24-12.05L163.24-12.05Q163.24-9.15 164.46-7.3 165.69-5.45 167.74-4.58 169.79-3.7 172.24-3.7ZM196.78-1L196.78-1Q196.03-1 195.68-1.35 195.33-1.7 195.18-2.35L195.18-2.35Q194.93-3.2 194.93-4.15L194.93-4.15 194.93-6.1Q194.93-7.7 195.03-8.88 195.13-10.05 195.13-11.45L195.13-11.45Q195.13-11.95 195.11-12.53 195.08-13.1 195.03-13.75L195.03-13.75Q194.83-16.2 194.48-18.9 194.13-21.6 194.13-23.8L194.13-23.8 194.13-25.75Q194.43-26.45 194.71-26.6 194.98-26.75 195.48-26.75L195.48-26.75Q196.68-26.75 197.18-25.83 197.68-24.9 197.86-23.68 198.03-22.45 198.08-21.55L198.08-21.55Q198.13-21.2 198.26-20.05 198.38-18.9 198.53-17.48 198.68-16.05 198.81-14.75 198.93-13.45 198.93-12.75L198.93-12.75Q199.73-14.4 200.83-16.18 201.93-17.95 203.06-19.5 204.18-21.05 205.08-22L205.08-22Q206.38-23.45 208.16-24.28 209.93-25.1 211.68-25.1L211.68-25.1Q213.73-25.1 215.28-23.95 216.83-22.8 217.96-20.95 219.08-19.1 219.83-16.98 220.58-14.85 221.03-12.85L221.03-12.85Q221.68-10.2 222.01-8.2 222.33-6.2 222.58-3.65L222.58-3.65Q222.58-2.55 222.13-1.9 221.68-1.25 221.03-1.25L221.03-1.25Q220.08-1.25 219.68-1.68 219.28-2.1 219.13-3.05L219.13-3.05Q218.78-4.95 218.46-7.35 218.13-9.75 217.58-12.23 217.03-14.7 215.98-16.75L215.98-16.75Q215.58-17.7 214.98-18.7 214.38-19.7 213.53-20.4 212.68-21.1 211.43-21.1L211.43-21.1Q209.78-21.1 208.11-19.65 206.43-18.2 204.93-15.9 203.43-13.6 202.18-10.98 200.93-8.35 200.08-6L200.08-6Q199.83-5.2 199.46-4.23 199.08-3.25 198.68-2.4L198.68-2.4Q198.33-1.7 197.91-1.35 197.48-1 196.78-1ZM230.48-1L230.48-1Q229.73-1 229.38-1.35 229.03-1.7 228.88-2.35L228.88-2.35Q228.63-3.2 228.63-4.15L228.63-4.15 228.63-6.1Q228.63-7.7 228.73-8.88 228.83-10.05 228.83-11.45L228.83-11.45Q228.83-11.95 228.81-12.53 228.78-13.1 228.73-13.75L228.73-13.75Q228.53-16.2 228.18-18.9 227.83-21.6 227.83-23.8L227.83-23.8 227.83-25.75Q228.13-26.45 228.41-26.6 228.68-26.75 229.18-26.75L229.18-26.75Q230.38-26.75 230.88-25.83 231.38-24.9 231.56-23.68 231.73-22.45 231.78-21.55L231.78-21.55Q231.83-21.2 231.96-20.05 232.08-18.9 232.23-17.48 232.38-16.05 232.51-14.75 232.63-13.45 232.63-12.75L232.63-12.75Q233.43-14.4 234.53-16.18 235.63-17.95 236.76-19.5 237.88-21.05 238.78-22L238.78-22Q240.08-23.45 241.86-24.28 243.63-25.1 245.38-25.1L245.38-25.1Q247.43-25.1 248.98-23.95 250.53-22.8 251.66-20.95 252.78-19.1 253.53-16.98 254.28-14.85 254.73-12.85L254.73-12.85Q255.38-10.2 255.71-8.2 256.03-6.2 256.28-3.65L256.28-3.65Q256.28-2.55 255.83-1.9 255.38-1.25 254.73-1.25L254.73-1.25Q253.78-1.25 253.38-1.68 252.98-2.1 252.83-3.05L252.83-3.05Q252.48-4.95 252.16-7.35 251.83-9.75 251.28-12.23 250.73-14.7 249.68-16.75L249.68-16.75Q249.28-17.7 248.68-18.7 248.08-19.7 247.23-20.4 246.38-21.1 245.13-21.1L245.13-21.1Q243.48-21.1 241.81-19.65 240.13-18.2 238.63-15.9 237.13-13.6 235.88-10.98 234.63-8.35 233.78-6L233.78-6Q233.53-5.2 233.16-4.23 232.78-3.25 232.38-2.4L232.38-2.4Q232.03-1.7 231.61-1.35 231.18-1 230.48-1ZM274.63 0.75L274.63 0.75Q270.83 0.75 267.75-0.38 264.68-1.5 262.88-3.93 261.08-6.35 261.08-10.2L261.08-10.2Q261.08-13.25 262.1-16.15 263.13-19.05 265.03-21.4 266.93-23.75 269.58-25.13 272.23-26.5 275.48-26.5L275.48-26.5Q277.73-26.5 279.55-25.65 281.38-24.8 282.48-23.25 283.58-21.7 283.58-19.55L283.58-19.55Q283.58-17.25 282.6-15.18 281.63-13.1 279.98-11.5 278.33-9.9 276.25-8.97 274.18-8.05 271.93-8.05L271.93-8.05Q269.98-8.05 268.28-8.38 266.58-8.7 265.13-9.4L265.13-9.4Q265.13-7.5 266.03-6.18 266.93-4.85 268.33-4.03 269.73-3.2 271.25-2.83 272.78-2.45 274.08-2.45L274.08-2.45Q275.13-2.45 276.18-2.58 277.23-2.7 278.48-2.7L278.48-2.7Q280.33-2.7 280.33-1.1L280.33-1.1Q280.33 0.15 278.58 0.5L278.58 0.5Q277.63 0.7 276.63 0.73 275.63 0.75 274.63 0.75ZM271.93-12.05L271.93-12.05Q273.68-12.05 275.58-12.75 277.48-13.45 278.8-14.95 280.13-16.45 280.13-18.75L280.13-18.75Q280.13-20.8 278.85-22.08 277.58-23.35 275.48-23.35L275.48-23.35Q273.58-23.35 271.75-22.48 269.93-21.6 268.43-20.13 266.93-18.65 266.03-16.8 265.13-14.95 265.13-13L265.13-13Q266.28-12.4 268.03-12.23 269.78-12.05 271.93-12.05ZM299.78-0.75L299.78-0.75Q296.28-0.75 293.88-2.45 291.48-4.15 290.23-7.03 288.98-9.9 288.98-13.3L288.98-13.3Q288.98-17.1 290.68-20.25 292.38-23.4 295.38-25.33 298.38-27.25 302.18-27.25L302.18-27.25Q303.23-27.25 304.63-27.1 306.03-26.95 307.33-26.5 308.63-26.05 309.48-25.2 310.33-24.35 310.33-22.95L310.33-22.95Q310.33-22.4 309.88-22 309.43-21.6 308.43-21.6L308.43-21.6Q307.63-21.6 306.95-22 306.28-22.4 305.68-22.8L305.68-22.8Q304.78-23.4 303.8-23.88 302.83-24.35 301.68-24.35L301.68-24.35Q299.48-24.35 297.83-23.23 296.18-22.1 295.08-20.33 293.98-18.55 293.43-16.57 292.88-14.6 292.88-12.95L292.88-12.95Q292.88-9.7 294.15-7.78 295.43-5.85 297.55-5.03 299.68-4.2 302.18-4.2L302.18-4.2Q304.58-4.2 306.55-5.05 308.53-5.9 310.58-6.85L310.58-6.85Q311.28-7.2 311.73-7.2L311.73-7.2Q312.33-7.2 312.53-6.73 312.73-6.25 312.73-5.55L312.73-5.55Q312.73-4.25 311.68-3.38 310.63-2.5 309.03-1.98 307.43-1.45 305.6-1.18 303.78-0.9 302.23-0.83 300.68-0.75 299.78-0.75ZM326.27 1L326.27 1Q325.02 1 324.42 0.2 323.82-0.6 323.65-1.8 323.47-3 323.47-4.15L323.47-4.15Q323.47-4.7 323.5-5.2 323.52-5.7 323.52-6.05L323.52-6.05Q323.52-9.65 323.67-13.33 323.82-17 323.82-21.35L323.82-21.35Q321.97-21.35 320.77-21.2 319.57-21.05 318.37-21.05L318.37-21.05Q317.57-21.05 317.27-21.35 316.97-21.65 316.97-22.35L316.97-22.35Q316.97-23.15 317.2-23.53 317.42-23.9 317.77-24L317.77-24 322.67-25Q323.77-25.25 324.25-26 324.72-26.75 324.92-27.45L324.92-27.45Q325.02-27.85 325.05-28.23 325.07-28.6 325.12-29.05L325.12-29.05Q325.12-29.45 325.15-29.83 325.17-30.2 325.17-30.55L325.17-30.55Q325.27-32.15 325.7-32.9 326.12-33.65 327.37-33.65L327.37-33.65Q328.52-33.65 328.75-32.75 328.97-31.85 328.97-31.05L328.97-31.05Q328.97-30.5 328.9-29.38 328.82-28.25 328.77-27.15 328.72-26.05 328.67-25.55L328.67-25.55 336.67-25.55Q337.12-25.55 337.57-24.95 338.02-24.35 338.02-23.4L338.02-23.4Q338.02-23.1 337.77-22.63 337.52-22.15 337.17-22.15L337.17-22.15Q336.67-22.15 335.3-22.13 333.92-22.1 332.35-22.05 330.77-22 329.57-21.95 328.37-21.9 328.22-21.8L328.22-21.8Q327.97-18.8 327.85-16.03 327.72-13.25 327.72-10.65L327.72-10.65Q327.72-8.95 327.8-7.38 327.87-5.8 327.92-4.25L327.92-4.25Q327.92-4 327.97-3.5 328.02-3 328.02-2.4L328.02-2.4Q328.02-1.25 327.7-0.13 327.37 1 326.27 1ZM355.52 0.75L355.52 0.75Q351.72 0.75 348.65-0.38 345.57-1.5 343.77-3.93 341.97-6.35 341.97-10.2L341.97-10.2Q341.97-13.25 343-16.15 344.02-19.05 345.92-21.4 347.82-23.75 350.47-25.13 353.12-26.5 356.37-26.5L356.37-26.5Q358.62-26.5 360.45-25.65 362.27-24.8 363.37-23.25 364.47-21.7 364.47-19.55L364.47-19.55Q364.47-17.25 363.5-15.18 362.52-13.1 360.87-11.5 359.22-9.9 357.15-8.97 355.07-8.05 352.82-8.05L352.82-8.05Q350.87-8.05 349.17-8.38 347.47-8.7 346.02-9.4L346.02-9.4Q346.02-7.5 346.92-6.18 347.82-4.85 349.22-4.03 350.62-3.2 352.15-2.83 353.67-2.45 354.97-2.45L354.97-2.45Q356.02-2.45 357.07-2.58 358.12-2.7 359.37-2.7L359.37-2.7Q361.22-2.7 361.22-1.1L361.22-1.1Q361.22 0.15 359.47 0.5L359.47 0.5Q358.52 0.7 357.52 0.73 356.52 0.75 355.52 0.75ZM352.82-12.05L352.82-12.05Q354.57-12.05 356.47-12.75 358.37-13.45 359.7-14.95 361.02-16.45 361.02-18.75L361.02-18.75Q361.02-20.8 359.75-22.08 358.47-23.35 356.37-23.35L356.37-23.35Q354.47-23.35 352.65-22.48 350.82-21.6 349.32-20.13 347.82-18.65 346.92-16.8 346.02-14.95 346.02-13L346.02-13Q347.17-12.4 348.92-12.23 350.67-12.05 352.82-12.05ZM378.02 0.75L375.77 0.75Q372.27-0.15 370.47-2.95 368.67-5.75 368.67-9.15L368.67-9.15Q368.67-12.35 370.09-15.33 371.52-18.3 373.92-20.68 376.32-23.05 379.39-24.43 382.47-25.8 385.77-25.8L385.77-25.8Q387.72-25.8 388.82-25.7 389.92-25.6 391.32-25.05L391.32-25.05Q391.37-25.8 391.57-27.15 391.77-28.5 392.02-30.03 392.27-31.55 392.42-32.75L392.42-32.75Q392.57-33.85 392.74-34.98 392.92-36.1 393.27-37.15L393.27-37.15Q394.07-39.35 395.57-39.35L395.57-39.35Q396.72-39.35 396.72-37.6L396.72-37.6Q396.72-37.35 396.69-37.02 396.67-36.7 396.62-36.3L396.62-36.3Q395.82-30.25 395.44-24.33 395.07-18.4 395.07-12.5L395.07-12.5Q395.07-10 395.22-7.58 395.37-5.15 395.57-2.6L395.57-2.6Q395.67-1.25 395.09-0.48 394.52 0.3 393.82 0.3L393.82 0.3Q392.82 0.3 392.47-0.95L392.47-0.95Q391.97-2.55 391.67-4.28 391.37-6 391.27-7.15L391.27-7.15Q389.42-5.1 387.27-3.3 385.12-1.5 382.79-0.38 380.47 0.75 378.02 0.75L378.02 0.75ZM377.72-2.35L377.72-2.35Q380.12-2.35 382.49-3.58 384.87-4.8 386.87-6.78 388.87-8.75 390.07-11.03 391.27-13.3 391.27-15.4L391.27-15.4Q391.27-17.3 390.69-18.9 390.12-20.5 389.04-21.48 387.97-22.45 386.47-22.45L386.47-22.45Q383.67-22.45 381.14-21.35 378.62-20.25 376.64-18.35 374.67-16.45 373.54-14 372.42-11.55 372.42-8.9L372.42-8.9 372.42-6.65Q372.92-4.75 374.22-3.55 375.52-2.35 377.72-2.35Z" opacity="1" transform="matrix(1,0,0,1,0,0)" fill="#000000" class="slogan-text-1" data-fill-palette-color="secondary" id="text-1"></path></svg></g></svg></g></svg></g></svg></g><g transform="matrix(1,0,0,1,87.25944795557538,0)"><svg viewBox="0 0 221.00110408884922 221.00110408884922" height="221.00110408884922" width="221.00110408884922"><g><svg></svg></g><g id="icon-0"><svg viewBox="0 0 221.00110408884922 221.00110408884922" height="221.00110408884922" width="221.00110408884922"><g><path d="M0 110.501c0-61.028 49.473-110.501 110.501-110.501 61.028 0 110.501 49.473 110.5 110.501 0 61.028-49.473 110.501-110.5 110.5-61.028 0-110.501-49.473-110.501-110.5zM110.501 212.4c56.277 0 101.899-45.622 101.899-101.899 0-56.277-45.622-101.899-101.899-101.9-56.277 0-101.899 45.622-101.9 101.9 0 56.277 45.622 101.899 101.9 101.899z" data-fill-palette-color="accent" fill="#000000" stroke="transparent"></path><ellipse rx="109.39554652398036" ry="109.39554652398036" cx="110.50055204442461" cy="110.50055204442461" fill="#000000" stroke="transparent" stroke-width="0" fill-opacity="1" data-fill-palette-color="accent"></ellipse></g><g transform="matrix(1,0,0,1,52.36383674438582,62.985718687177524)"><svg viewBox="0 0 116.27343060007757 95.02966671449417" height="95.02966671449417" width="116.27343060007757"><g>
<svg xmlns="http://www.w3.org/2000/svg" xmlns:xlink="http://www.w3.org/1999/xlink" version="1.1" x="0" y="0" viewBox="2.3239970499912936 13.865394252128795 73.10900295000872 59.75160574787121" enable-background="new 0 0 80 80" xml:space="preserve" height="95.02966671449417" width="116.27343060007757" class="icon-dxe-0" data-fill-palette-color="quaternary" id="dxe-0"><path d="M74.289 65.7C73.756 65.7 73.312 66.067 73.185 66.56L51.367 41.963 50.941 41.118A1 1 0 0 0 50.852 40.861L40.133 19.565 42.168 15.523A1.143 1.143 0 0 0 40.126 14.495L38.854 17.023 37.582 14.495A1.142 1.142 0 1 0 35.54 15.522L37.575 19.564 26.855 40.861C26.835 40.9 26.823 40.941 26.809 40.982L26.217 42.158 4.571 66.561A1.141 1.141 0 0 0 2.324 66.844V72.474A1.143 1.143 0 0 0 4.61 72.474V69.96L22.208 50.121 11.596 71.207H7.017A1.143 1.143 0 0 0 7.017 73.493H69.995A1.144 1.144 0 1 0 69.995 71.207H66.087L55.375 49.927 73.146 69.96V72.473A1.144 1.144 0 0 0 75.433 72.473V66.843A1.144 1.144 0 0 0 74.289 65.7M29.283 71.207L38.841 52.217 48.399 71.207zM52.265 71.207H50.958L39.862 49.16A1.144 1.144 0 0 0 37.82 49.16L26.724 71.207H14.155L28.125 43.451 28.198 43.369A1.14 1.14 0 0 0 28.476 42.754L38.841 22.161 63.528 71.207z" fill="#ffffff" data-fill-palette-color="quaternary"></path></svg></g></svg></g></svg></g></svg></g><g></g></svg></g><defs></defs></svg><rect width="234.8103042312508" height="247.2" fill="none" stroke="none" visibility="hidden"></rect></g></svg></g></svg>